<svg xmlns="http://www.w3.org/2000/svg" version="1.1" xmlns:xlink="http://www.w3.org/1999/xlink" xmlns:svgjs="http://svgjs.dev/svgjs" width="1500" height="1500" viewBox="0 0 1500 1500"><rect width="1500" height="1500" fill="#f8f8f8"></rect><g transform="matrix(0.6666666666666666,0,0,0.6666666666666666,250.28105330919476,641.9084353250784)"><svg viewBox="0 0 397 86" data-background-color="#f8f8f8" preserveAspectRatio="xMidYMid meet" height="324" width="1500" xmlns="http://www.w3.org/2000/svg" xmlns:xlink="http://www.w3.org/1999/xlink"><g id="tight-bounds" transform="matrix(1,0,0,1,-0.11157816375032326,0.03645630575584846)"><svg viewBox="0 0 395.52 85.9270873884883" height="85.9270873884883" width="395.52"><g><svg viewBox="0 0 548.667059125132 119.19842823783905" height="85.9270873884883" width="395.52"><g><rect width="5.445020044204954" height="103.50080599522927" x="409.7739791733114" y="7.848811121304891" fill="#aa2222" opacity="1" stroke-width="0" stroke="transparent" fill-opacity="1" class="rect-qz-0" data-fill-palette-color="primary" rx="1%" id="qz-0" data-palette-color="#aa2222"></rect></g><g transform="matrix(1,0,0,1,0,16.473878287573996)"><svg viewBox="0 0 395.52 86.25067166269106" height="86.25067166269106" width="395.52"><g id="textblocktransform"><svg viewBox="0 0 395.52 86.25067166269106" height="86.25067166269106" width="395.52" id="textblock"><g><svg viewBox="0 0 395.52 60.37877282447769" height="60.37877282447769" width="395.52"><g transform="matrix(1,0,0,1,0,0)"><svg width="395.52" viewBox="3.25 -35 303.92 46.4" height="60.37877282447769" data-palette-color="#aa2222"><g class="wordmark-text-0" data-fill-palette-color="primary" id="text-0"><path d="M23.15-4.4L23.15 0 3.25 0 3.25-26.65Q3.25-30.35 5.6-32.6L5.6-32.6Q7.2-34.1 9.2-34.55 11.2-35 14.1-35L14.1-35 23.15-35 23.15-30.6 13.45-30.6Q7.95-30.6 7.95-26L7.95-26 7.95-20.3 19.5-20.3 19.5-15.9 7.95-15.9 7.95-4.4 23.15-4.4ZM42.25-23.3L42.25-24 46.65-24 46.65-23.3Q46.65-16.55 41.25-12.5L41.25-12.5Q43.85-10.6 45.25-7.78 46.65-4.95 46.65-1.8L46.65-1.8 46.65 0 42.25 0 42.25-1.8Q42.25-4.6 40.9-6.85 39.55-9.1 36.9-10.3L36.9-10.3Q34.3-9.05 32.92-6.7 31.55-4.35 31.55-1.5L31.55-1.5 31.55 0 27.15 0 27.15-1.5Q27.15-8.5 32.55-12.5L32.55-12.5Q27.15-16.55 27.15-23.6L27.15-23.6 27.15-24 31.55-24 31.55-23.6Q31.55-20.75 32.92-18.4 34.3-16.05 36.9-14.75L36.9-14.75Q42.25-17.25 42.25-23.3L42.25-23.3ZM56.15 11.4L51.65 11.4 51.65-12Q51.65-14.6 52.6-16.9 53.55-19.2 55.2-20.88 56.85-22.55 59.1-23.53 61.35-24.5 63.9-24.5L63.9-24.5Q66.45-24.5 68.67-23.53 70.9-22.55 72.57-20.85 74.25-19.15 75.2-16.88 76.15-14.6 76.15-12L76.15-12Q76.15-9.4 75.22-7.13 74.3-4.85 72.65-3.15 71-1.45 68.75-0.48 66.5 0.5 63.9 0.5L63.9 0.5Q60.7 0.5 57.95-1L57.95-1 57.95-5.5Q60.4-3.7 63.75-3.7L63.75-3.7Q65.55-3.7 67.02-4.33 68.5-4.95 69.52-6.05 70.55-7.15 71.09-8.68 71.65-10.2 71.65-12L71.65-12Q71.65-13.8 71.09-15.33 70.55-16.85 69.55-17.95 68.55-19.05 67.12-19.68 65.7-20.3 63.9-20.3L63.9-20.3Q62.15-20.3 60.72-19.7 59.3-19.1 58.27-18 57.25-16.9 56.7-15.38 56.15-13.85 56.15-12L56.15-12 56.15 11.4ZM81.39-9.5L81.39-9.5 81.39-35 85.89-35 85.89-9.5Q85.89-7.7 86.32-6.58 86.74-5.45 87.64-4.98 88.54-4.5 89.39-4.35 90.24-4.2 91.64-4.2L91.64-4.2 91.64 0Q86.04 0 83.72-2.15 81.39-4.3 81.39-9.5ZM97.64-20.85L97.64-20.85Q101.14-24.5 106.39-24.5L106.39-24.5Q108.94-24.5 111.17-23.53 113.39-22.55 115.07-20.85 116.74-19.15 117.69-16.88 118.64-14.6 118.64-12L118.64-12Q118.64-9.4 117.72-7.13 116.79-4.85 115.14-3.15 113.49-1.45 111.24-0.48 108.99 0.5 106.39 0.5L106.39 0.5Q103.74 0.5 101.52-0.48 99.29-1.45 97.64-3.15 95.99-4.85 95.07-7.13 94.14-9.4 94.14-12L94.14-12Q94.14-17.3 97.64-20.85ZM106.39-20.3L106.39-20.3Q102.89-20.3 100.77-18 98.64-15.7 98.64-12 98.64-8.3 100.77-6 102.89-3.7 106.39-3.7L106.39-3.7Q109.94-3.7 112.04-6.03 114.14-8.35 114.14-12 114.14-15.65 112.04-17.98 109.94-20.3 106.39-20.3ZM127.54 0L123.14 0 123.14-13.65Q123.14-19.4 125.29-21.6L125.29-21.6Q126.34-22.7 127.84-23.25 129.34-23.8 130.46-23.9 131.59-24 133.54-24L133.54-24 137.94-24 137.94-19.8 132.64-19.8Q131.64-19.8 131.09-19.75 130.54-19.7 129.79-19.4 129.04-19.1 128.49-18.45L128.49-18.45Q127.54-17.25 127.54-13.65L127.54-13.65 127.54 0ZM152.94-24.5L152.94-24.5Q161.44-24.15 161.44-17.45L161.44-17.45Q161.44-9.1 150.49-9.1L150.49-9.1 148.44-9.1 148.44-12.95 150.84-12.95Q154.19-12.95 155.49-13.98 156.79-15 156.79-17.4L156.79-17.4Q156.79-18.95 155.64-19.73 154.49-20.5 152.69-20.5L152.69-20.5Q149.14-20.5 147.11-18 145.09-15.5 145.09-12L145.09-12Q145.09-8.3 147.26-6 149.44-3.7 152.94-3.7L152.94-3.7Q156.09-3.7 158.09-5.25L158.09-5.25 161.09-2.3Q157.64 0.5 152.94 0.5L152.94 0.5Q147.24 0.5 143.84-2.85 140.44-6.2 140.44-11.5L140.44-11.5Q140.44-17.4 143.79-21.05 147.14-24.7 152.94-24.5ZM165.68-34.4L165.68-34.4 165.68-35 170.38-35 170.38-34.4Q170.38-24.4 177.43-20.35L177.43-20.35Q181.38-22.55 182.96-26.05 184.53-29.55 184.53-34.4L184.53-34.4 184.53-35 189.33-35 189.33-33.95Q189.33-23.55 181.63-18.3L181.63-18.3Q189.33-12.95 189.33-2.65L189.33-2.65 189.33 0 184.53 0 184.53-2.2Q184.53-7.05 182.96-10.55 181.38-14.05 177.43-16.25L177.43-16.25Q170.38-12.2 170.38-2.2L170.38-2.2 170.38 0 165.68 0 165.68-2.2Q165.68-12.9 173.38-18.3L173.38-18.3Q165.68-23.6 165.68-34.4ZM199.08 11.4L194.58 11.4 194.58-12Q194.58-14.6 195.53-16.9 196.48-19.2 198.13-20.88 199.78-22.55 202.03-23.53 204.28-24.5 206.83-24.5L206.83-24.5Q209.38-24.5 211.61-23.53 213.83-22.55 215.51-20.85 217.18-19.15 218.13-16.88 219.08-14.6 219.08-12L219.08-12Q219.08-9.4 218.16-7.13 217.23-4.85 215.58-3.15 213.93-1.45 211.68-0.48 209.43 0.5 206.83 0.5L206.83 0.5Q203.63 0.5 200.88-1L200.88-1 200.88-5.5Q203.33-3.7 206.68-3.7L206.68-3.7Q208.48-3.7 209.96-4.33 211.43-4.95 212.46-6.05 213.48-7.15 214.03-8.68 214.58-10.2 214.58-12L214.58-12Q214.58-13.8 214.03-15.33 213.48-16.85 212.48-17.95 211.48-19.05 210.06-19.68 208.63-20.3 206.83-20.3L206.83-20.3Q205.08-20.3 203.66-19.7 202.23-19.1 201.21-18 200.18-16.9 199.63-15.38 199.08-13.85 199.08-12L199.08-12 199.08 11.4ZM227.98 0L223.58 0 223.58-13.65Q223.58-19.4 225.73-21.6L225.73-21.6Q226.78-22.7 228.28-23.25 229.78-23.8 230.9-23.9 232.03-24 233.98-24L233.98-24 238.38-24 238.38-19.8 233.08-19.8Q232.08-19.8 231.53-19.75 230.98-19.7 230.23-19.4 229.48-19.1 228.93-18.45L228.93-18.45Q227.98-17.25 227.98-13.65L227.98-13.65 227.98 0ZM253.38-24.5L253.38-24.5Q261.88-24.15 261.88-17.45L261.88-17.45Q261.88-9.1 250.93-9.1L250.93-9.1 248.88-9.1 248.88-12.95 251.28-12.95Q254.63-12.95 255.93-13.98 257.23-15 257.23-17.4L257.23-17.4Q257.23-18.95 256.08-19.73 254.93-20.5 253.13-20.5L253.13-20.5Q249.58-20.5 247.55-18 245.53-15.5 245.53-12L245.53-12Q245.53-8.3 247.7-6 249.88-3.7 253.38-3.7L253.38-3.7Q256.53-3.7 258.53-5.25L258.53-5.25 261.53-2.3Q258.08 0.5 253.38 0.5L253.38 0.5Q247.68 0.5 244.28-2.85 240.88-6.2 240.88-11.5L240.88-11.5Q240.88-17.4 244.23-21.05 247.58-24.7 253.38-24.5ZM274.67-24L283.52-24 283.52-19.8 274.67-19.8Q273.22-19.8 272.17-19.25 271.12-18.7 271.12-17.7L271.12-17.7Q271.12-17.1 271.37-16.63 271.62-16.15 271.95-15.85 272.27-15.55 272.95-15.23 273.62-14.9 274-14.78 274.37-14.65 277.17-13.75 279.97-12.85 281.32-12.25 282.67-11.65 283.4-10.63 284.12-9.6 284.32-8.63 284.52-7.65 284.52-6.7L284.52-6.7Q284.52 0 275.32 0L275.32 0 266.67 0 266.67-4.2 275.32-4.2Q280.02-4.2 280.02-6.7L280.02-6.7Q280.02-7.9 278.65-8.7 277.27-9.5 275.3-10.05 273.32-10.6 271.35-11.33 269.37-12.05 268-13.68 266.62-15.3 266.62-17.7L266.62-17.7Q266.62-20.75 268.97-22.38 271.32-24 274.67-24L274.67-24ZM297.32-24L306.17-24 306.17-19.8 297.32-19.8Q295.87-19.8 294.82-19.25 293.77-18.7 293.77-17.7L293.77-17.7Q293.77-17.1 294.02-16.63 294.27-16.15 294.6-15.85 294.92-15.55 295.6-15.23 296.27-14.9 296.65-14.78 297.02-14.65 299.82-13.75 302.62-12.85 303.97-12.25 305.32-11.65 306.05-10.63 306.77-9.6 306.97-8.63 307.17-7.65 307.17-6.7L307.17-6.7Q307.17 0 297.97 0L297.97 0 289.32 0 289.32-4.2 297.97-4.2Q302.67-4.2 302.67-6.7L302.67-6.7Q302.67-7.9 301.3-8.7 299.92-9.5 297.95-10.05 295.97-10.6 294-11.33 292.02-12.05 290.65-13.68 289.27-15.3 289.27-17.7L289.27-17.7Q289.27-20.75 291.62-22.38 293.97-24 297.32-24L297.32-24Z" fill="#aa2222" data-fill-palette-color="primary"></path></g></svg></g></svg></g><g transform="matrix(1,0,0,1,163.31020800000002,74.63275199778909)"><svg viewBox="0 0 232.20979199999996 11.61791966490197" height="11.61791966490197" width="232.20979199999996"><g transform="matrix(1,0,0,1,0,0)"><svg width="232.20979199999996" viewBox="4.45 -32.9 859.3499999999999 43" height="11.61791966490197" data-palette-color="#000000"><path d="M8.5-12.3L4.45-12.35 4.45-28.2Q4.45-29.2 5.05-29.8 5.65-30.4 6.65-30.4L6.65-30.4Q7.2-30.4 7.75-30.25 8.3-30.1 8.5-30L8.5-30 8.5-12.3ZM6.65-13.1L6.65-16.55 21.5-16.55Q21.65-16.3 21.8-15.88 21.95-15.45 21.95-14.95L21.95-14.95Q21.95-14.15 21.55-13.63 21.15-13.1 20.4-13.1L20.4-13.1 6.65-13.1ZM6.65-26.95L6.65-30.4 23.25-30.4Q23.4-30.2 23.55-29.75 23.7-29.3 23.7-28.8L23.7-28.8Q23.7-28 23.3-27.48 22.9-26.95 22.15-26.95L22.15-26.95 6.65-26.95ZM4.45-17.8L8.55-17.8 8.55-0.05Q8.3 0 7.78 0.13 7.25 0.25 6.7 0.25L6.7 0.25Q5.6 0.25 5.03-0.2 4.45-0.65 4.45-1.55L4.45-1.55 4.45-17.8ZM33.6-18.8L33.6-10.9 29.6-10.9 29.6-18.5Q29.6-19.65 30.02-20.33 30.45-21 31.45-21.65L31.45-21.65Q32.75-22.5 35-23.13 37.25-23.75 40-23.75L40-23.75Q44-23.75 44-21.75L44-21.75Q44-21.25 43.85-20.83 43.7-20.4 43.45-20.1L43.45-20.1Q42.95-20.2 42.15-20.3 41.35-20.4 40.55-20.4L40.55-20.4Q38.25-20.4 36.5-19.93 34.75-19.45 33.6-18.8L33.6-18.8ZM29.6-13.2L33.6-12.6 33.6-0.1Q33.35 0 32.85 0.13 32.35 0.25 31.75 0.25L31.75 0.25Q30.7 0.25 30.15-0.18 29.6-0.6 29.6-1.55L29.6-1.55 29.6-13.2ZM70.15-11.55L70.15-11.55Q70.15-7.85 68.75-5.1 67.35-2.35 64.8-0.85 62.25 0.65 58.8 0.65L58.8 0.65Q55.35 0.65 52.77-0.85 50.2-2.35 48.8-5.1 47.4-7.85 47.4-11.55L47.4-11.55Q47.4-15.3 48.82-18.03 50.25-20.75 52.82-22.25 55.4-23.75 58.8-23.75L58.8-23.75Q62.2-23.75 64.75-22.25 67.3-20.75 68.72-18.03 70.15-15.3 70.15-11.55ZM58.8-20.45L58.8-20.45Q55.45-20.45 53.47-18.07 51.5-15.7 51.5-11.55L51.5-11.55Q51.5-7.35 53.42-5 55.35-2.65 58.8-2.65L58.8-2.65Q62.2-2.65 64.12-5.03 66.05-7.4 66.05-11.55L66.05-11.55Q66.05-15.7 64.12-18.07 62.2-20.45 58.8-20.45ZM94.99-16L94.99-10.25 90.99-10.25 90.99-15.7Q90.99-18.15 89.57-19.3 88.14-20.45 85.79-20.45L85.79-20.45Q84.24-20.45 82.79-19.95 81.34-19.45 80.34-18.8L80.34-18.8 80.34-10.25 76.34-10.25 76.34-18.6Q76.34-19.6 76.77-20.3 77.19-21 78.24-21.65L78.24-21.65Q79.59-22.5 81.67-23.13 83.74-23.75 85.84-23.75L85.84-23.75Q88.39-23.75 90.34-22.98 92.29-22.2 93.24-20.85L93.24-20.85Q93.54-20.55 93.74-20.3 93.94-20.05 94.14-19.65L94.14-19.65Q94.49-19.05 94.74-18.1 94.99-17.15 94.99-16L94.99-16ZM109.64-15.9L109.64-10.25 105.64-10.25 105.64-15.7Q105.64-18.15 104.24-19.3 102.84-20.45 100.49-20.45L100.49-20.45Q98.74-20.45 97.12-19.73 95.49-19 94.19-17.65L94.19-17.65 92.59-20.55Q93.89-21.85 95.99-22.8 98.09-23.75 100.79-23.75L100.79-23.75Q103.49-23.75 105.47-22.9 107.44-22.05 108.54-20.3 109.64-18.55 109.64-15.9L109.64-15.9ZM76.34-12.9L80.34-12.9 80.34-0.1Q80.09 0 79.59 0.13 79.09 0.25 78.49 0.25L78.49 0.25Q77.44 0.25 76.89-0.18 76.34-0.6 76.34-1.55L76.34-1.55 76.34-12.9ZM90.99-12.9L94.99-12.9 94.99-0.1Q94.74 0 94.22 0.13 93.69 0.25 93.14 0.25L93.14 0.25Q92.04 0.25 91.52-0.18 90.99-0.6 90.99-1.55L90.99-1.55 90.99-12.9ZM105.64-12.9L109.64-12.9 109.64-0.1Q109.39 0 108.87 0.13 108.34 0.25 107.79 0.25L107.79 0.25Q106.69 0.25 106.17-0.18 105.64-0.6 105.64-1.55L105.64-1.55 105.64-12.9ZM149.14-15.55L149.14-15.55Q149.14-9.3 146.14-6.08 143.14-2.85 137.29-2.85L137.29-2.85Q135.84-2.85 134.46-2.95 133.09-3.05 131.89-3.35L131.89-3.35 131.89-27.15Q132.89-27.35 134.09-27.45 135.29-27.55 136.84-27.55L136.84-27.55Q140.24-27.55 143.01-26.33 145.79-25.1 147.46-22.48 149.14-19.85 149.14-15.55ZM153.29-15.55L153.29-15.55Q153.29-20.7 151.21-24.1 149.14-27.5 145.46-29.23 141.79-30.95 136.89-30.95L136.89-30.95Q134.94-30.95 132.99-30.8 131.04-30.65 129.49-30.15L129.49-30.15Q128.69-29.9 128.26-29.48 127.84-29.05 127.84-28.25L127.84-28.25 127.84-2.55Q127.84-0.9 129.94-0.25L129.94-0.25Q131.74 0.3 133.76 0.43 135.79 0.55 137.34 0.55L137.34 0.55Q142.19 0.55 145.76-1.2 149.34-2.95 151.31-6.53 153.29-10.1 153.29-15.55ZM163.74-18.8L163.74-10.9 159.74-10.9 159.74-18.5Q159.74-19.65 160.16-20.33 160.59-21 161.59-21.65L161.59-21.65Q162.89-22.5 165.14-23.13 167.39-23.75 170.14-23.75L170.14-23.75Q174.14-23.75 174.14-21.75L174.14-21.75Q174.14-21.25 173.99-20.83 173.84-20.4 173.59-20.1L173.59-20.1Q173.09-20.2 172.29-20.3 171.49-20.4 170.69-20.4L170.69-20.4Q168.39-20.4 166.64-19.93 164.89-19.45 163.74-18.8L163.74-18.8ZM159.74-13.2L163.74-12.6 163.74-0.1Q163.49 0 162.99 0.13 162.49 0.25 161.89 0.25L161.89 0.25Q160.84 0.25 160.29-0.18 159.74-0.6 159.74-1.55L159.74-1.55 159.74-13.2ZM180.28-9L180.08-12.15 195.18-14.2Q194.98-16.95 193.28-18.73 191.58-20.5 188.58-20.5L188.58-20.5Q185.48-20.5 183.46-18.28 181.43-16.05 181.43-11.9L181.43-11.9 181.43-10.8Q181.78-6.8 184.06-4.73 186.33-2.65 190.28-2.65L190.28-2.65Q192.38-2.65 194.08-3.35 195.78-4.05 196.78-4.85L196.78-4.85Q197.33-4.5 197.66-4.03 197.98-3.55 197.98-2.95L197.98-2.95Q197.98-2 196.91-1.18 195.83-0.35 194.06 0.15 192.28 0.65 190.08 0.65L190.08 0.65Q186.23 0.65 183.41-0.75 180.58-2.15 179.06-4.93 177.53-7.7 177.53-11.7L177.53-11.7Q177.53-14.55 178.36-16.78 179.18-19 180.66-20.55 182.13-22.1 184.18-22.93 186.23-23.75 188.63-23.75L188.63-23.75Q191.68-23.75 194.01-22.45 196.33-21.15 197.66-18.82 198.98-16.5 198.98-13.5L198.98-13.5Q198.98-12.4 198.48-11.93 197.98-11.45 197.08-11.35L197.08-11.35 180.28-9ZM213.03-2.6L213.03-2.6Q215.13-2.6 216.51-3.03 217.88-3.45 218.48-3.85L218.48-3.85 218.48-11.1 212.28-10.45Q209.68-10.25 208.43-9.3 207.18-8.35 207.18-6.55L207.18-6.55Q207.18-4.7 208.66-3.65 210.13-2.6 213.03-2.6ZM212.98-23.75L212.98-23.75Q217.33-23.75 219.88-21.8 222.43-19.85 222.43-15.65L222.43-15.65 222.43-3.8Q222.43-2.7 222.01-2.13 221.58-1.55 220.73-1.05L220.73-1.05Q219.53-0.4 217.53 0.15 215.53 0.7 213.03 0.7L213.03 0.7Q208.33 0.7 205.76-1.15 203.18-3 203.18-6.5L203.18-6.5Q203.18-9.75 205.36-11.48 207.53-13.2 211.38-13.55L211.38-13.55 218.48-14.25 218.48-15.65Q218.48-18.15 216.98-19.3 215.48-20.45 212.93-20.45L212.93-20.45Q210.88-20.45 209.01-19.85 207.13-19.25 205.68-18.5L205.68-18.5Q205.28-18.85 204.96-19.33 204.63-19.8 204.63-20.3L204.63-20.3Q204.63-21.6 206.08-22.3L206.08-22.3Q207.43-23 209.21-23.38 210.98-23.75 212.98-23.75ZM248.38-16L248.38-10.25 244.38-10.25 244.38-15.7Q244.38-18.15 242.95-19.3 241.53-20.45 239.18-20.45L239.18-20.45Q237.63-20.45 236.18-19.95 234.73-19.45 233.73-18.8L233.73-18.8 233.73-10.25 229.73-10.25 229.73-18.6Q229.73-19.6 230.15-20.3 230.58-21 231.63-21.65L231.63-21.65Q232.98-22.5 235.05-23.13 237.13-23.75 239.23-23.75L239.23-23.75Q241.78-23.75 243.73-22.98 245.68-22.2 246.63-20.85L246.63-20.85Q246.93-20.55 247.13-20.3 247.33-20.05 247.53-19.65L247.53-19.65Q247.88-19.05 248.13-18.1 248.38-17.15 248.38-16L248.38-16ZM263.03-15.9L263.03-10.25 259.03-10.25 259.03-15.7Q259.03-18.15 257.63-19.3 256.23-20.45 253.88-20.45L253.88-20.45Q252.13-20.45 250.5-19.73 248.88-19 247.58-17.65L247.58-17.65 245.98-20.55Q247.28-21.85 249.38-22.8 251.48-23.75 254.18-23.75L254.18-23.75Q256.88-23.75 258.85-22.9 260.83-22.05 261.93-20.3 263.03-18.55 263.03-15.9L263.03-15.9ZM229.73-12.9L233.73-12.9 233.73-0.1Q233.48 0 232.98 0.13 232.48 0.25 231.88 0.25L231.88 0.25Q230.83 0.25 230.28-0.18 229.73-0.6 229.73-1.55L229.73-1.55 229.73-12.9ZM244.38-12.9L248.38-12.9 248.38-0.1Q248.13 0 247.6 0.13 247.08 0.25 246.53 0.25L246.53 0.25Q245.43 0.25 244.9-0.18 244.38-0.6 244.38-1.55L244.38-1.55 244.38-12.9ZM259.03-12.9L263.03-12.9 263.03-0.1Q262.78 0 262.25 0.13 261.73 0.25 261.18 0.25L261.18 0.25Q260.08 0.25 259.55-0.18 259.03-0.6 259.03-1.55L259.03-1.55 259.03-12.9ZM270.18-30.4L270.18-30.4Q270.18-31.45 270.93-32.18 271.68-32.9 272.78-32.9L272.78-32.9Q273.93-32.9 274.63-32.18 275.33-31.45 275.33-30.4L275.33-30.4Q275.33-29.35 274.63-28.63 273.93-27.9 272.78-27.9L272.78-27.9Q271.68-27.9 270.93-28.63 270.18-29.35 270.18-30.4ZM270.78-13.2L274.78-13.2 274.78-0.1Q274.53 0 274.03 0.13 273.53 0.25 272.93 0.25L272.93 0.25Q271.88 0.25 271.33-0.18 270.78-0.6 270.78-1.55L270.78-1.55 270.78-13.2ZM274.78-11.25L270.78-11.25 270.78-23Q271.03-23.1 271.55-23.23 272.08-23.35 272.68-23.35L272.68-23.35Q273.73-23.35 274.25-22.93 274.78-22.5 274.78-21.5L274.78-21.5 274.78-11.25ZM302.57-15.25L302.57-10.15 298.57-10.15 298.57-15.05Q298.57-17.85 297-19.15 295.42-20.45 292.77-20.45L292.77-20.45Q290.77-20.45 289.22-19.95 287.67-19.45 286.57-18.8L286.57-18.8 286.57-10.15 282.57-10.15 282.57-18.6Q282.57-19.65 283-20.33 283.42-21 284.47-21.65L284.47-21.65Q285.77-22.4 287.92-23.08 290.07-23.75 292.77-23.75L292.77-23.75Q297.32-23.75 299.95-21.68 302.57-19.6 302.57-15.25L302.57-15.25ZM282.57-12.9L286.57-12.9 286.57-0.1Q286.32 0 285.82 0.13 285.32 0.25 284.72 0.25L284.72 0.25Q283.67 0.25 283.12-0.18 282.57-0.6 282.57-1.55L282.57-1.55 282.57-12.9ZM298.57-12.9L302.57-12.9 302.57-0.1Q302.32 0 301.8 0.13 301.27 0.25 300.72 0.25L300.72 0.25Q299.62 0.25 299.1-0.18 298.57-0.6 298.57-1.55L298.57-1.55 298.57-12.9ZM319.67-0.7L319.67-0.7Q316.77-0.7 314.32-1.83 311.87-2.95 310.37-5.5 308.87-8.05 308.87-12.25L308.87-12.25Q308.87-16.05 310.35-18.6 311.82-21.15 314.42-22.45 317.02-23.75 320.37-23.75L320.37-23.75Q322.67-23.75 324.6-23.18 326.52-22.6 327.82-21.75L327.82-21.75Q328.57-21.25 329.05-20.63 329.52-20 329.52-19.1L329.52-19.1 329.52-3.65 325.52-3.65 325.52-19.05Q324.67-19.6 323.4-20.03 322.12-20.45 320.37-20.45L320.37-20.45Q317.02-20.45 314.97-18.4 312.92-16.35 312.92-12.3L312.92-12.3Q312.92-7.8 315-5.9 317.07-4 320.12-4L320.12-4Q322.32-4 323.67-4.75 325.02-5.5 325.82-6.4L325.82-6.4 326.02-2.85Q325.27-2.05 323.65-1.38 322.02-0.7 319.67-0.7ZM325.52 0.75L325.52-4.5 329.52-4.5 329.52 1Q329.52 4.3 328.1 6.3 326.67 8.3 324.2 9.2 321.72 10.1 318.62 10.1L318.62 10.1Q316.12 10.1 314.32 9.55 312.52 9 311.87 8.65L311.87 8.65Q310.37 7.8 310.37 6.5L310.37 6.5Q310.37 5.8 310.7 5.33 311.02 4.85 311.52 4.6L311.52 4.6Q312.57 5.4 314.5 6.08 316.42 6.75 318.62 6.75L318.62 6.75Q321.97 6.75 323.75 5.3 325.52 3.85 325.52 0.75L325.52 0.75ZM346.97-13.2L350.97-13.2 350.97-6.3Q350.97-4.3 352.12-3.48 353.27-2.65 355.27-2.65L355.27-2.65Q356.12-2.65 357.17-2.95 358.22-3.25 358.92-3.65L358.92-3.65Q359.22-3.35 359.47-2.9 359.72-2.45 359.72-1.85L359.72-1.85Q359.72-0.75 358.42-0.05 357.12 0.65 354.82 0.65L354.82 0.65Q351.32 0.65 349.14-0.9 346.97-2.45 346.97-6.05L346.97-6.05 346.97-13.2ZM349.02-19.3L349.02-22.6 359.17-22.6Q359.32-22.4 359.47-21.95 359.62-21.5 359.62-21L359.62-21Q359.62-20.2 359.22-19.75 358.82-19.3 358.12-19.3L358.12-19.3 349.02-19.3ZM350.97-11.7L346.97-11.7 346.97-29.8Q347.22-29.9 347.74-30.03 348.27-30.15 348.87-30.15L348.87-30.15Q349.92-30.15 350.44-29.73 350.97-29.3 350.97-28.35L350.97-28.35 350.97-11.7ZM386.96-11.55L386.96-11.55Q386.96-7.85 385.56-5.1 384.16-2.35 381.61-0.85 379.06 0.65 375.61 0.65L375.61 0.65Q372.16 0.65 369.59-0.85 367.01-2.35 365.61-5.1 364.21-7.85 364.21-11.55L364.21-11.55Q364.21-15.3 365.64-18.03 367.06-20.75 369.64-22.25 372.21-23.75 375.61-23.75L375.61-23.75Q379.01-23.75 381.56-22.25 384.11-20.75 385.54-18.03 386.96-15.3 386.96-11.55ZM375.61-20.45L375.61-20.45Q372.26-20.45 370.29-18.07 368.31-15.7 368.31-11.55L368.31-11.55Q368.31-7.35 370.24-5 372.16-2.65 375.61-2.65L375.61-2.65Q379.01-2.65 380.94-5.03 382.86-7.4 382.86-11.55L382.86-11.55Q382.86-15.7 380.94-18.07 379.01-20.45 375.61-20.45ZM403.86-18.3L407.91-18.3 407.91-0.4Q407.71-0.35 407.16-0.18 406.61 0 406.06 0L406.06 0Q405.06 0 404.46-0.63 403.86-1.25 403.86-2.2L403.86-2.2 403.86-18.3ZM407.91-12.4L403.86-12.45 403.86-28.2Q403.86-29.2 404.46-29.8 405.06-30.4 406.06-30.4L406.06-30.4Q406.61-30.4 407.16-30.25 407.71-30.1 407.91-30L407.91-30 407.91-12.4ZM406.06-13.9L406.06-17.3 421.11-17.3Q421.26-17.1 421.41-16.65 421.56-16.2 421.56-15.7L421.56-15.7Q421.56-14.9 421.16-14.4 420.76-13.9 420.01-13.9L420.01-13.9 406.06-13.9ZM406.06 0L406.06-3.4 422.91-3.4Q423.06-3.2 423.21-2.78 423.36-2.35 423.36-1.8L423.36-1.8Q423.36-1 422.96-0.5 422.56 0 421.81 0L421.81 0 406.06 0ZM406.06-26.95L406.06-30.4 422.66-30.4Q422.81-30.2 422.96-29.75 423.11-29.3 423.11-28.8L423.11-28.8Q423.11-28 422.71-27.48 422.31-26.95 421.56-26.95L421.56-26.95 406.06-26.95ZM436.66-13.05L437.41-13.4Q439.46-16.05 441.26-18.35 443.06-20.65 444.96-23.4L444.96-23.4Q445.16-23.45 445.26-23.45 445.36-23.45 445.51-23.45L445.51-23.45Q446.56-23.45 447.16-22.98 447.76-22.5 447.76-21.7L447.76-21.7Q447.76-21.15 447.53-20.65 447.31-20.15 446.81-19.5L446.81-19.5Q445.11-17.4 443.33-15.25 441.56-13.1 439.86-11.05L439.86-11.05 438.56-9.95Q436.71-7.5 434.76-4.88 432.81-2.25 431.01 0.25L431.01 0.25Q430.96 0.25 430.68 0.25 430.41 0.25 430.31 0.25L430.31 0.25Q429.16 0.25 428.58-0.25 428.01-0.75 428.01-1.5L428.01-1.5Q428.01-1.9 428.18-2.35 428.36-2.8 429.01-3.6L429.01-3.6Q430.81-6 432.81-8.33 434.81-10.65 436.66-13.05L436.66-13.05ZM439.11-12.95L440.01-12.35Q442.06-9.65 444.13-7.03 446.21-4.4 448.26-1.75L448.26-1.75Q448.16-0.8 447.61-0.25 447.06 0.3 446.16 0.3L446.16 0.3Q445.36 0.3 444.81-0.13 444.26-0.55 443.56-1.45L443.56-1.45Q442.06-3.55 440.38-5.9 438.71-8.25 437.21-10.3L437.21-10.3 436.06-11.35Q433.86-14 431.96-16.4 430.06-18.8 428.06-21.35L428.06-21.35Q428.26-22.35 428.81-22.9 429.36-23.45 430.16-23.45L430.16-23.45Q431.01-23.45 431.51-23.03 432.01-22.6 432.51-21.9L432.51-21.9Q434.01-19.9 435.66-17.53 437.31-15.15 439.11-12.95L439.11-12.95ZM463.65 0.65L463.65 0.65Q466.95 0.65 469.5-0.7 472.05-2.05 473.48-4.78 474.9-7.5 474.9-11.6L474.9-11.6Q474.9-15.85 473.33-18.53 471.75-21.2 469.08-22.48 466.4-23.75 463.1-23.75L463.1-23.75Q460.7-23.75 458.83-23.13 456.95-22.5 455.6-21.75L455.6-21.75Q454.5-21.1 454.15-20.5 453.8-19.9 453.8-18.9L453.8-18.9 453.8-2.4 457.8-2.4 457.8-19Q458.8-19.55 460.05-20 461.3-20.45 463.1-20.45L463.1-20.45Q465.15-20.45 466.93-19.6 468.7-18.75 469.78-16.82 470.85-14.9 470.85-11.6L470.85-11.6Q470.85-6.9 468.73-4.78 466.6-2.65 463.1-2.65L463.1-2.65Q460.95-2.65 459.43-3.38 457.9-4.1 456.9-5.05L456.9-5.05 456.9-1.35Q457.75-0.6 459.63 0.03 461.5 0.65 463.65 0.65ZM457.8-3.75L453.8-3.85 453.8 7.5Q453.8 8.45 454.35 8.9 454.9 9.35 455.95 9.35L455.95 9.35Q456.55 9.35 457.05 9.22 457.55 9.1 457.8 9L457.8 9 457.8-3.75ZM481.5-13.2L485.5-12.6 485.5-0.1Q485.25 0 484.75 0.13 484.25 0.25 483.65 0.25L483.65 0.25Q482.6 0.25 482.05-0.18 481.5-0.6 481.5-1.55L481.5-1.55 481.5-13.2ZM485.5-10.7L481.5-11.25 481.5-32.4Q481.75-32.5 482.28-32.63 482.8-32.75 483.35-32.75L483.35-32.75Q484.45-32.75 484.98-32.33 485.5-31.9 485.5-30.95L485.5-30.95 485.5-10.7ZM514.85-11.55L514.85-11.55Q514.85-7.85 513.45-5.1 512.05-2.35 509.5-0.85 506.95 0.65 503.5 0.65L503.5 0.65Q500.05 0.65 497.47-0.85 494.9-2.35 493.5-5.1 492.1-7.85 492.1-11.55L492.1-11.55Q492.1-15.3 493.52-18.03 494.95-20.75 497.52-22.25 500.1-23.75 503.5-23.75L503.5-23.75Q506.9-23.75 509.45-22.25 512-20.75 513.42-18.03 514.85-15.3 514.85-11.55ZM503.5-20.45L503.5-20.45Q500.15-20.45 498.17-18.07 496.2-15.7 496.2-11.55L496.2-11.55Q496.2-7.35 498.12-5 500.05-2.65 503.5-2.65L503.5-2.65Q506.9-2.65 508.82-5.03 510.75-7.4 510.75-11.55L510.75-11.55Q510.75-15.7 508.82-18.07 506.9-20.45 503.5-20.45ZM525.05-18.8L525.05-10.9 521.05-10.9 521.05-18.5Q521.05-19.65 521.47-20.33 521.9-21 522.9-21.65L522.9-21.65Q524.2-22.5 526.45-23.13 528.7-23.75 531.45-23.75L531.45-23.75Q535.45-23.75 535.45-21.75L535.45-21.75Q535.45-21.25 535.3-20.83 535.15-20.4 534.9-20.1L534.9-20.1Q534.4-20.2 533.6-20.3 532.8-20.4 532-20.4L532-20.4Q529.7-20.4 527.95-19.93 526.2-19.45 525.05-18.8L525.05-18.8ZM521.05-13.2L525.05-12.6 525.05-0.1Q524.8 0 524.3 0.13 523.8 0.25 523.2 0.25L523.2 0.25Q522.15 0.25 521.6-0.18 521.05-0.6 521.05-1.55L521.05-1.55 521.05-13.2ZM539.79-30.4L539.79-30.4Q539.79-31.45 540.54-32.18 541.29-32.9 542.39-32.9L542.39-32.9Q543.54-32.9 544.24-32.18 544.94-31.45 544.94-30.4L544.94-30.4Q544.94-29.35 544.24-28.63 543.54-27.9 542.39-27.9L542.39-27.9Q541.29-27.9 540.54-28.63 539.79-29.35 539.79-30.4ZM540.39-13.2L544.39-13.2 544.39-0.1Q544.14 0 543.64 0.13 543.14 0.25 542.54 0.25L542.54 0.25Q541.49 0.25 540.94-0.18 540.39-0.6 540.39-1.55L540.39-1.55 540.39-13.2ZM544.39-11.25L540.39-11.25 540.39-23Q540.64-23.1 541.17-23.23 541.69-23.35 542.29-23.35L542.29-23.35Q543.34-23.35 543.87-22.93 544.39-22.5 544.39-21.5L544.39-21.5 544.39-11.25ZM572.19-15.25L572.19-10.15 568.19-10.15 568.19-15.05Q568.19-17.85 566.61-19.15 565.04-20.45 562.39-20.45L562.39-20.45Q560.39-20.45 558.84-19.95 557.29-19.45 556.19-18.8L556.19-18.8 556.19-10.15 552.19-10.15 552.19-18.6Q552.19-19.65 552.61-20.33 553.04-21 554.09-21.65L554.09-21.65Q555.39-22.4 557.54-23.08 559.69-23.75 562.39-23.75L562.39-23.75Q566.94-23.75 569.56-21.68 572.19-19.6 572.19-15.25L572.19-15.25ZM552.19-12.9L556.19-12.9 556.19-0.1Q555.94 0 555.44 0.13 554.94 0.25 554.34 0.25L554.34 0.25Q553.29 0.25 552.74-0.18 552.19-0.6 552.19-1.55L552.19-1.55 552.19-12.9ZM568.19-12.9L572.19-12.9 572.19-0.1Q571.94 0 571.41 0.13 570.89 0.25 570.34 0.25L570.34 0.25Q569.24 0.25 568.71-0.18 568.19-0.6 568.19-1.55L568.19-1.55 568.19-12.9ZM589.29-0.7L589.29-0.7Q586.39-0.7 583.94-1.83 581.49-2.95 579.99-5.5 578.49-8.05 578.49-12.25L578.49-12.25Q578.49-16.05 579.96-18.6 581.44-21.15 584.04-22.45 586.64-23.75 589.99-23.75L589.99-23.75Q592.29-23.75 594.21-23.18 596.14-22.6 597.44-21.75L597.44-21.75Q598.19-21.25 598.66-20.63 599.14-20 599.14-19.1L599.14-19.1 599.14-3.65 595.14-3.65 595.14-19.05Q594.29-19.6 593.01-20.03 591.74-20.45 589.99-20.45L589.99-20.45Q586.64-20.45 584.59-18.4 582.54-16.35 582.54-12.3L582.54-12.3Q582.54-7.8 584.61-5.9 586.69-4 589.74-4L589.74-4Q591.94-4 593.29-4.75 594.64-5.5 595.44-6.4L595.44-6.4 595.64-2.85Q594.89-2.05 593.26-1.38 591.64-0.7 589.29-0.7ZM595.14 0.75L595.14-4.5 599.14-4.5 599.14 1Q599.14 4.3 597.71 6.3 596.29 8.3 593.81 9.2 591.34 10.1 588.24 10.1L588.24 10.1Q585.74 10.1 583.94 9.55 582.14 9 581.49 8.65L581.49 8.65Q579.99 7.8 579.99 6.5L579.99 6.5Q579.99 5.8 580.31 5.33 580.64 4.85 581.14 4.6L581.14 4.6Q582.19 5.4 584.11 6.08 586.04 6.75 588.24 6.75L588.24 6.75Q591.59 6.75 593.36 5.3 595.14 3.85 595.14 0.75L595.14 0.75ZM606.18 4.7L606.18 4.7Q605.38 6.05 604.23 6.05L604.23 6.05Q603.13 6.05 602.43 5.2L602.43 5.2Q602.88 3.9 603.46 2.13 604.03 0.35 604.53-1.5 605.03-3.35 605.28-4.7L605.28-4.7Q605.68-4.9 606.16-5.03 606.63-5.15 607.18-5.15L607.18-5.15Q608.08-5.15 608.58-4.73 609.08-4.3 609.08-3.3L609.08-3.3Q609.08-2.2 608.56-0.58 608.03 1.05 607.33 2.53 606.63 4 606.18 4.7ZM632.88-2.75L632.88-2.75Q636.23-2.75 637.95-4.28 639.68-5.8 639.68-8.2L639.68-8.2Q639.68-10.25 638.35-11.6 637.03-12.95 634.18-13.75L634.18-13.75 629.83-15.05Q627.73-15.7 626.18-16.73 624.63-17.75 623.8-19.28 622.98-20.8 622.98-22.85L622.98-22.85Q622.98-26.7 625.78-28.88 628.58-31.05 633.23-31.05L633.23-31.05Q635.93-31.05 638.05-30.48 640.18-29.9 641.4-29 642.63-28.1 642.63-27.1L642.63-27.1Q642.63-26.45 642.28-25.93 641.93-25.4 641.38-25.1L641.38-25.1Q640.13-26.1 638-26.85 635.88-27.6 633.38-27.6L633.38-27.6Q630.48-27.6 628.78-26.33 627.08-25.05 627.08-22.85L627.08-22.85Q627.08-21.1 628.3-20 629.53-18.9 632.28-18.1L632.28-18.1 635.33-17.2Q639.28-16.1 641.55-14 643.83-11.9 643.83-8.2L643.83-8.2Q643.83-4.25 640.95-1.8 638.08 0.65 632.88 0.65L632.88 0.65Q629.83 0.65 627.55-0.03 625.28-0.7 624-1.73 622.73-2.75 622.73-3.75L622.73-3.75Q622.73-4.6 623.25-5.18 623.78-5.75 624.48-6L624.48-6Q625.63-4.9 627.73-3.83 629.83-2.75 632.88-2.75ZM651.38-9L651.18-12.15 666.28-14.2Q666.08-16.95 664.38-18.73 662.68-20.5 659.68-20.5L659.68-20.5Q656.58-20.5 654.55-18.28 652.53-16.05 652.53-11.9L652.53-11.9 652.53-10.8Q652.88-6.8 655.15-4.73 657.43-2.65 661.38-2.65L661.38-2.65Q663.48-2.65 665.18-3.35 666.88-4.05 667.88-4.85L667.88-4.85Q668.43-4.5 668.75-4.03 669.08-3.55 669.08-2.95L669.08-2.95Q669.08-2 668-1.18 666.93-0.35 665.15 0.15 663.38 0.65 661.18 0.65L661.18 0.65Q657.33 0.65 654.5-0.75 651.68-2.15 650.15-4.93 648.63-7.7 648.63-11.7L648.63-11.7Q648.63-14.55 649.45-16.78 650.28-19 651.75-20.55 653.23-22.1 655.28-22.93 657.33-23.75 659.73-23.75L659.73-23.75Q662.78-23.75 665.1-22.45 667.43-21.15 668.75-18.82 670.08-16.5 670.08-13.5L670.08-13.5Q670.08-12.4 669.58-11.93 669.08-11.45 668.18-11.35L668.18-11.35 651.38-9ZM684.12-2.6L684.12-2.6Q686.22-2.6 687.6-3.03 688.97-3.45 689.57-3.85L689.57-3.85 689.57-11.1 683.37-10.45Q680.77-10.25 679.52-9.3 678.27-8.35 678.27-6.55L678.27-6.55Q678.27-4.7 679.75-3.65 681.22-2.6 684.12-2.6ZM684.07-23.75L684.07-23.75Q688.42-23.75 690.97-21.8 693.52-19.85 693.52-15.65L693.52-15.65 693.52-3.8Q693.52-2.7 693.1-2.13 692.67-1.55 691.82-1.05L691.82-1.05Q690.62-0.4 688.62 0.15 686.62 0.7 684.12 0.7L684.12 0.7Q679.42 0.7 676.85-1.15 674.27-3 674.27-6.5L674.27-6.5Q674.27-9.75 676.45-11.48 678.62-13.2 682.47-13.55L682.47-13.55 689.57-14.25 689.57-15.65Q689.57-18.15 688.07-19.3 686.57-20.45 684.02-20.45L684.02-20.45Q681.97-20.45 680.1-19.85 678.22-19.25 676.77-18.5L676.77-18.5Q676.37-18.85 676.05-19.33 675.72-19.8 675.72-20.3L675.72-20.3Q675.72-21.6 677.17-22.3L677.17-22.3Q678.52-23 680.3-23.38 682.07-23.75 684.07-23.75ZM719.47-16L719.47-10.25 715.47-10.25 715.47-15.7Q715.47-18.15 714.05-19.3 712.62-20.45 710.27-20.45L710.27-20.45Q708.72-20.45 707.27-19.95 705.82-19.45 704.82-18.8L704.82-18.8 704.82-10.25 700.82-10.25 700.82-18.6Q700.82-19.6 701.25-20.3 701.67-21 702.72-21.65L702.72-21.65Q704.07-22.5 706.15-23.13 708.22-23.75 710.32-23.75L710.32-23.75Q712.87-23.75 714.82-22.98 716.77-22.2 717.72-20.85L717.72-20.85Q718.02-20.55 718.22-20.3 718.42-20.05 718.62-19.65L718.62-19.65Q718.97-19.05 719.22-18.1 719.47-17.15 719.47-16L719.47-16ZM734.12-15.9L734.12-10.25 730.12-10.25 730.12-15.7Q730.12-18.15 728.72-19.3 727.32-20.45 724.97-20.45L724.97-20.45Q723.22-20.45 721.6-19.73 719.97-19 718.67-17.65L718.67-17.65 717.07-20.55Q718.37-21.85 720.47-22.8 722.57-23.75 725.27-23.75L725.27-23.75Q727.97-23.75 729.95-22.9 731.92-22.05 733.02-20.3 734.12-18.55 734.12-15.9L734.12-15.9ZM700.82-12.9L704.82-12.9 704.82-0.1Q704.57 0 704.07 0.13 703.57 0.25 702.97 0.25L702.97 0.25Q701.92 0.25 701.37-0.18 700.82-0.6 700.82-1.55L700.82-1.55 700.82-12.9ZM715.47-12.9L719.47-12.9 719.47-0.1Q719.22 0 718.7 0.13 718.17 0.25 717.62 0.25L717.62 0.25Q716.52 0.25 716-0.18 715.47-0.6 715.47-1.55L715.47-1.55 715.47-12.9ZM730.12-12.9L734.12-12.9 734.12-0.1Q733.87 0 733.35 0.13 732.82 0.25 732.27 0.25L732.27 0.25Q731.17 0.25 730.65-0.18 730.12-0.6 730.12-1.55L730.12-1.55 730.12-12.9ZM742.02-13.2L746.02-12.6 746.02-0.1Q745.77 0 745.27 0.13 744.77 0.25 744.17 0.25L744.17 0.25Q743.12 0.25 742.57-0.18 742.02-0.6 742.02-1.55L742.02-1.55 742.02-13.2ZM746.02-10.7L742.02-11.25 742.02-32.4Q742.27-32.5 742.79-32.63 743.32-32.75 743.87-32.75L743.87-32.75Q744.97-32.75 745.49-32.33 746.02-31.9 746.02-30.95L746.02-30.95 746.02-10.7ZM755.37-9L755.17-12.15 770.27-14.2Q770.07-16.95 768.37-18.73 766.67-20.5 763.67-20.5L763.67-20.5Q760.57-20.5 758.54-18.28 756.52-16.05 756.52-11.9L756.52-11.9 756.52-10.8Q756.87-6.8 759.14-4.73 761.42-2.65 765.37-2.65L765.37-2.65Q767.47-2.65 769.17-3.35 770.87-4.05 771.87-4.85L771.87-4.85Q772.42-4.5 772.74-4.03 773.07-3.55 773.07-2.95L773.07-2.95Q773.07-2 771.99-1.18 770.92-0.35 769.14 0.15 767.37 0.65 765.17 0.65L765.17 0.65Q761.32 0.65 758.49-0.75 755.67-2.15 754.14-4.93 752.62-7.7 752.62-11.7L752.62-11.7Q752.62-14.55 753.44-16.78 754.27-19 755.74-20.55 757.22-22.1 759.27-22.93 761.32-23.75 763.72-23.75L763.72-23.75Q766.77-23.75 769.09-22.45 771.42-21.15 772.74-18.82 774.07-16.5 774.07-13.5L774.07-13.5Q774.07-12.4 773.57-11.93 773.07-11.45 772.17-11.35L772.17-11.35 755.37-9ZM796.16-6.15L796.16-6.15Q796.16-2.95 793.81-1.15 791.46 0.65 787.01 0.65L787.01 0.65Q783.21 0.65 780.81-0.53 778.41-1.7 778.41-3.1L778.41-3.1Q778.41-3.7 778.74-4.28 779.06-4.85 779.71-5.2L779.71-5.2Q781.06-4.25 782.86-3.45 784.66-2.65 786.96-2.65L786.96-2.65Q792.16-2.65 792.16-6.15L792.16-6.15Q792.16-7.6 791.29-8.53 790.41-9.45 788.71-9.85L788.71-9.85 784.56-10.95Q781.51-11.7 780.11-13.28 778.71-14.85 778.71-17.2L778.71-17.2Q778.71-19.85 780.86-21.8 783.01-23.75 787.41-23.75L787.41-23.75Q789.76-23.75 791.51-23.28 793.26-22.8 794.24-22.03 795.21-21.25 795.21-20.35L795.21-20.35Q795.21-19.7 794.89-19.2 794.56-18.7 794.01-18.45L794.01-18.45Q793.41-18.85 792.49-19.33 791.56-19.8 790.31-20.13 789.06-20.45 787.56-20.45L787.56-20.45Q785.36-20.45 784.01-19.6 782.66-18.75 782.66-17.2L782.66-17.2Q782.66-16.1 783.44-15.28 784.21-14.45 785.91-14.05L785.91-14.05 789.36-13.2Q792.76-12.4 794.46-10.68 796.16-8.95 796.16-6.15ZM818.51-6.15L818.51-6.15Q818.51-2.95 816.16-1.15 813.81 0.65 809.36 0.65L809.36 0.65Q805.56 0.65 803.16-0.53 800.76-1.7 800.76-3.1L800.76-3.1Q800.76-3.7 801.09-4.28 801.41-4.85 802.06-5.2L802.06-5.2Q803.41-4.25 805.21-3.45 807.01-2.65 809.31-2.65L809.31-2.65Q814.51-2.65 814.51-6.15L814.51-6.15Q814.51-7.6 813.64-8.53 812.76-9.45 811.06-9.85L811.06-9.85 806.91-10.95Q803.86-11.7 802.46-13.28 801.06-14.85 801.06-17.2L801.06-17.2Q801.06-19.85 803.21-21.8 805.36-23.75 809.76-23.75L809.76-23.75Q812.11-23.75 813.86-23.28 815.61-22.8 816.59-22.03 817.56-21.25 817.56-20.35L817.56-20.35Q817.56-19.7 817.24-19.2 816.91-18.7 816.36-18.45L816.36-18.45Q815.76-18.85 814.84-19.33 813.91-19.8 812.66-20.13 811.41-20.45 809.91-20.45L809.91-20.45Q807.71-20.45 806.36-19.6 805.01-18.75 805.01-17.2L805.01-17.2Q805.01-16.1 805.79-15.28 806.56-14.45 808.26-14.05L808.26-14.05 811.71-13.2Q815.11-12.4 816.81-10.68 818.51-8.95 818.51-6.15ZM824.96-13.2L828.96-12.6 828.96-0.1Q828.71 0 828.21 0.13 827.71 0.25 827.11 0.25L827.11 0.25Q826.06 0.25 825.51-0.18 824.96-0.6 824.96-1.55L824.96-1.55 824.96-13.2ZM828.96-10.7L824.96-11.25 824.96-32.4Q825.21-32.5 825.73-32.63 826.26-32.75 826.81-32.75L826.81-32.75Q827.91-32.75 828.43-32.33 828.96-31.9 828.96-30.95L828.96-30.95 828.96-10.7ZM841.56-5.15L841.56-5.15Q840.71-6.75 839.51-9.47 838.31-12.2 837.03-15.58 835.76-18.95 834.61-22.45L834.61-22.45Q834.96-22.95 835.53-23.25 836.11-23.55 836.76-23.55L836.76-23.55Q837.61-23.55 838.16-23.1 838.71-22.65 839.06-21.6L839.06-21.6Q840.56-17.4 842.21-13.25 843.86-9.1 845.86-4.65L845.86-4.65 846.06-4.65Q847.11-6.75 848.26-9.9 849.41-13.05 850.46-16.55 851.51-20.05 852.21-23.15L852.21-23.15Q852.56-23.3 852.98-23.43 853.41-23.55 853.91-23.55L853.91-23.55Q854.76-23.55 855.31-23.13 855.86-22.7 855.86-21.85L855.86-21.85Q855.86-21.05 855.41-19.18 854.96-17.3 854.18-14.83 853.41-12.35 852.38-9.58 851.36-6.8 850.18-4.13 849.01-1.45 847.81 0.7L847.81 0.7Q845.51 4.95 843.61 7.23 841.71 9.5 840.11 9.5L840.11 9.5Q838.96 9.5 838.33 8.9 837.71 8.3 837.56 7.5L837.56 7.5Q838.66 6.55 840.03 4.98 841.41 3.4 842.68 1.58 843.96-0.25 844.76-1.9L844.76-1.9Q843.91-2.15 843.18-2.8 842.46-3.45 841.56-5.15ZM858.35-2.1L858.35-2.1Q858.35-3.3 859.08-4.1 859.8-4.9 861.1-4.9L861.1-4.9Q862.4-4.9 863.1-4.1 863.8-3.3 863.8-2.1L863.8-2.1Q863.8-0.95 863.1-0.15 862.4 0.65 861.1 0.65L861.1 0.65Q859.8 0.65 859.08-0.15 858.35-0.95 858.35-2.1Z" opacity="1" transform="matrix(1,0,0,1,0,0)" fill="#000000" class="slogan-text-1" data-fill-palette-color="secondary" id="text-1"></path></svg></g></svg></g></svg></g></svg></g><g transform="matrix(1,0,0,1,429.47297839082773,0)"><svg viewBox="0 0 119.19408073430432 119.19842823783905" height="119.19842823783905" width="119.19408073430432"><g><svg xmlns="http://www.w3.org/2000/svg" data-name="Layer 1" viewBox="0.0023529445696704454 0.000006450246664041481 127.99532530130858 127.99999382281358" x="0" y="0" width="119.19408073430432" height="119.19842823783905" class="icon-icon-0" data-fill-palette-color="accent" id="icon-0"><path d="M57.566 122.69a1.998 1.998 0 0 0 2.386-1.515l6.744-30.283a5.037 5.037 0 0 0 0.702-0.176l11.275-4.018a1.997 1.997 0 0 0 1.063-0.889l2.149-3.752 3.077 6.119-8.134 13.831a1.998 1.998 0 0 0-0.218 0.537l-4.434 18.139a5.698 5.698 0 0 0 5.545 7.044h0.226a5.697 5.697 0 0 0 5.589-4.543l3.286-14.41 5.603-5.591 10.429 21.498A5.673 5.673 0 0 0 108.018 128a5.793 5.793 0 0 0 1.589-0.224 5.692 5.692 0 0 0 3.743-7.562L103 93.428V78.832a1.983 1.983 0 0 0-0.105-0.62l4.3-3.196a1.993 1.993 0 0 0 0.469-2.708L97.951 57.767a2.004 2.004 0 0 0-2.606-0.653l-4.768 2.542A1.993 1.993 0 0 0 89.514 58.942a10.002 10.002 0 1 0-13.212 6.202 1.983 1.983 0 0 0-0.221 0.38L71.403 76.482l-8.375 5.318a4.987 4.987 0 0 0-0.244 8.261L56.048 120.309A1.995 1.995 0 0 0 57.566 122.69ZM95.629 61.488l7.654 11.458-2.547 1.893L92.818 62.987ZM74 55.881a6 6 0 1 1 6 5.987A6 6 0 0 1 74 55.881ZM65.175 85.168l8.899-5.65a1.999 1.999 0 0 0 0.766-0.902l4.63-10.846 8.839-4.337L99 79.436V93.8a1.993 1.993 0 0 0 0.134 0.717l10.491 27.153a1.703 1.703 0 0 1-1.117 2.268 1.709 1.709 0 0 1-2.037-0.961L94.8 98.917A2.001 2.001 0 0 0 93.333 97.819 2.023 2.023 0 0 0 93 97.791a2.001 2.001 0 0 0-1.414 0.585l-8 7.983a1.99 1.99 0 0 0-0.536 0.968L79.623 122.359a1.709 1.709 0 0 1-1.676 1.377H77.721a1.705 1.705 0 0 1-1.659-2.108l4.364-17.854L88.962 89.261a1.992 1.992 0 0 0 0.062-1.905L83.788 76.939a1.999 1.999 0 0 0-1.734-1.1 1.942 1.942 0 0 0-1.79 1.005l-3.634 6.344L66.053 86.957a1.002 1.002 0 0 1-0.878-1.789Z" fill="#2f76db" data-fill-palette-color="accent"></path><path d="M108.414 10.563a2.002 2.002 0 0 0-2.828 0L89.5 26.615 63.414 0.585a2.002 2.002 0 0 0-2.828 0L32 29.11 21.414 18.546a2.002 2.002 0 0 0-2.828 0l-18 17.962A1.998 1.998 0 0 0 3.414 39.33L20 22.78l23.672 23.621L39 51.063l-4.586-4.576a2.002 2.002 0 0 0-2.828 0l-31 30.934a1.998 1.998 0 0 0 2.828 2.822L33 50.72 58.586 76.251a1.998 1.998 0 0 0 2.828-2.822L41.828 53.885 58 37.748 68.377 48.103a14.093 14.093 0 0 1 2.686-2.965L59.414 33.514a2.002 2.002 0 0 0-2.828 0L46.5 43.579l-11.672-11.647L62 4.818 86.672 29.437 75.586 40.499a1.986 1.986 0 0 0-0.381 2.273 13.928 13.928 0 0 1 4.614-0.852L107 14.797l17.586 17.548a1.998 1.998 0 1 0 2.828-2.822Z" fill="#2f76db" data-fill-palette-color="accent"></path><path d="M100.414 46.487a2.002 2.002 0 0 0-2.828 0l-4.495 4.485a13.847 13.847 0 0 1 0.901 4.746L99 50.72l25.586 25.531a1.998 1.998 0 0 0 2.828-2.822Z" fill="#2f76db" data-fill-palette-color="accent"></path></svg></g></svg></g></svg></g><defs></defs></svg><rect width="395.52" height="85.9270873884883" fill="none" stroke="none" visibility="hidden"></rect></g></svg></g></svg>